<?xml version="1.0" encoding="UTF-8"?>
<svg version="1.1" xmlns="http://www.w3.org/2000/svg" width="192" height="192">
<path d="M0 0 C1.22589844 -0.01417969 2.45179688 -0.02835938 3.71484375 -0.04296875 C6.81893812 0.17073203 8.47612551 0.54751818 11.0625 2.1875 C11.0625 3.5075 11.0625 4.8275 11.0625 6.1875 C9.75796875 6.19007812 8.4534375 6.19265625 7.109375 6.1953125 C-3.31802315 6.36697334 -12.32636951 6.6127855 -20.9375 13.1875 C-22.2801689 14.84665514 -23.61531648 16.51197433 -24.9375 18.1875 C-25.5975 18.1875 -26.2575 18.1875 -26.9375 18.1875 C-27.22367188 18.91839844 -27.50984375 19.64929688 -27.8046875 20.40234375 C-28.4953681 22.10046537 -29.22143714 23.78542602 -30.0078125 25.44140625 C-33.40227598 32.87150965 -34.37066822 39.99592125 -32.171875 47.9609375 C-30.33028401 52.8279994 -27.90921302 56.94219569 -24.9375 61.1875 C-24.9375 61.8475 -24.9375 62.5075 -24.9375 63.1875 C-24.37933594 63.45433594 -23.82117188 63.72117188 -23.24609375 63.99609375 C-20.9375 65.1875 -20.9375 65.1875 -18.59765625 66.66015625 C-10.10266548 71.85934609 -1.82825619 73.353597 8 71.4375 C18.37675079 68.56451982 24.52740341 62.74289076 29.8984375 53.65234375 C32.27490508 48.62029327 32.32675989 43.34599473 32.625 37.875 C32.66818359 37.13443359 32.71136719 36.39386719 32.75585938 35.63085938 C32.86120432 33.81658536 32.96228316 32.0020645 33.0625 30.1875 C34.7125 30.1875 36.3625 30.1875 38.0625 30.1875 C39.85182038 42.47094262 38.31050658 52.40849629 32.0625 63.1875 C32.84625 63.125625 33.63 63.06375 34.4375 63 C35.736875 63.0928125 35.736875 63.0928125 37.0625 63.1875 C39.37532587 66.65673881 39.48728586 68.10955575 39.0625 72.1875 C37.625 73.875 37.625 73.875 36.0625 75.1875 C35.5675 76.6725 35.5675 76.6725 35.0625 78.1875 C37.7025 78.1875 40.3425 78.1875 43.0625 78.1875 C43.3925 79.1775 43.7225 80.1675 44.0625 81.1875 C44.7225 81.1875 45.3825 81.1875 46.0625 81.1875 C49.77633278 85.3634613 52.68225094 89.53070051 53.9375 95 C52.86488678 98.90737674 51.47335775 100.11839687 48.27734375 102.4375 C44.77709499 103.62276942 42.59636428 103.2158123 39.0625 102.1875 C36.79786348 100.21209794 35.21810843 97.93100782 33.5625 95.4375 C33.10875 94.81617187 32.655 94.19484375 32.1875 93.5546875 C30.20625078 90.69154076 29.00770657 88.89590072 29.28125 85.359375 C29.66796875 84.28429687 29.66796875 84.28429687 30.0625 83.1875 C30.0625 82.5275 30.0625 81.8675 30.0625 81.1875 C28.94875 81.6515625 28.94875 81.6515625 27.8125 82.125 C26.905 82.475625 25.9975 82.82625 25.0625 83.1875 C24.423125 83.496875 23.78375 83.80625 23.125 84.125 C21.0625 84.1875 21.0625 84.1875 17.875 81.9375 C15.0625 79.1875 15.0625 79.1875 14.0625 76.1875 C13.24265625 76.50976562 12.4228125 76.83203125 11.578125 77.1640625 C2.72537658 79.74119593 -8.44468611 79.49778775 -16.8046875 75.4453125 C-27.31327476 69.24794053 -34.08654091 61.84389768 -37.9375 50.1875 C-38.4325 48.7025 -38.4325 48.7025 -38.9375 47.1875 C-39.71341065 33.90749082 -38.52691044 23.87045695 -29.9375 13.1875 C-22.33457179 4.71712361 -11.28901982 0.05922886 0 0 Z M30.0625 63.1875 C29.546875 63.88875 29.03125 64.59 28.5 65.3125 C25.23224088 69.16677998 21.32581767 71.53659093 17.0625 74.1875 C19.5375 76.1675 19.5375 76.1675 22.0625 78.1875 C23.52272163 77.23204634 24.98061468 76.27303322 26.4375 75.3125 C27.24960938 74.77882813 28.06171875 74.24515625 28.8984375 73.6953125 C31.13844096 72.22884945 31.13844096 72.22884945 33.0625 70.1875 C32.73923447 66.59070934 32.73923447 66.59070934 32.0625 63.1875 C31.4025 63.1875 30.7425 63.1875 30.0625 63.1875 Z M36.375 85.6875 C35.941875 86.1825 35.50875 86.6775 35.0625 87.1875 C36.3364589 89.22583424 37.67311923 91.22602126 39.0625 93.1875 C39.7225 93.1875 40.3825 93.1875 41.0625 93.1875 C41.0625 94.1775 41.0625 95.1675 41.0625 96.1875 C42.89950789 96.95992269 42.89950789 96.95992269 45.0625 97.1875 C46.70591433 95.75257733 46.70591433 95.75257733 48.0625 94.1875 C46.97083564 92.5126177 45.86376363 90.84776877 44.75 89.1875 C43.82767578 87.7953125 43.82767578 87.7953125 42.88671875 86.375 C42.28472656 85.653125 41.68273437 84.93125 41.0625 84.1875 C38.05990483 83.85531808 38.05990483 83.85531808 36.375 85.6875 Z " fill="#000000" transform="translate(126.9375,23.8125)"/>
<path d="M0 0 C-0.375 1.9375 -0.375 1.9375 -1 4 C-4.08455497 5.54227748 -6.10573589 4.17818414 -9.3125 3.125 C-23.17082703 -1.3943632 -34.68604663 -0.72189677 -48.1484375 5.44140625 C-61.80737395 12.90704412 -70.39765238 24.77056308 -76 39 C-76.82086546 41.84846689 -77.16268205 44.48256835 -77.28125 47.44140625 C-77.31863281 48.27220703 -77.35601562 49.10300781 -77.39453125 49.95898438 C-77.46500173 51.69856132 -77.53531353 53.43814469 -77.60546875 55.17773438 C-77.64285156 56.00724609 -77.68023437 56.83675781 -77.71875 57.69140625 C-77.76418945 58.82364624 -77.76418945 58.82364624 -77.81054688 59.97875977 C-78 62 -78 62 -79 65 C-79.66 65 -80.32 65 -81 65 C-81 65.99 -81 66.98 -81 68 C-82.66666667 69.66666667 -84.33333333 71.33333333 -86 73 C-86.86119134 75.17346568 -86.86119134 75.17346568 -87 77 C-86.030625 77.61875 -85.06125 78.2375 -84.0625 78.875 C-81 81 -81 81 -80 83 C-79.93003986 84.70702735 -79.91559846 86.41668003 -79.9375 88.125 C-79.94652344 89.03507812 -79.95554687 89.94515625 -79.96484375 90.8828125 C-79.97644531 91.58148438 -79.98804688 92.28015625 -80 93 C-79.0409375 93.4021875 -79.0409375 93.4021875 -78.0625 93.8125 C-76 95 -76 95 -75 98 C-76.32 99.32 -77.64 100.64 -79 102 C-78.49855469 102.54140625 -77.99710938 103.0828125 -77.48046875 103.640625 C-75.58005854 106.66924708 -75.85395543 108.2483869 -76.3125 111.75 C-76.43238281 112.73484375 -76.55226563 113.7196875 -76.67578125 114.734375 C-76.78277344 115.48203125 -76.88976562 116.2296875 -77 117 C-70.40813022 120.29593489 -61.40573721 117.61723397 -54.7265625 115.75390625 C-52.16330144 115.04515355 -49.61293278 114.48933105 -47 114 C-46.67 115.65 -46.34 117.3 -46 119 C-47.32 119.99 -48.64 120.98 -50 122 C-49.38125 123.0725 -48.7625 124.145 -48.125 125.25 C-44.52675959 132.44648082 -43.37793872 140.13475321 -45 148 C-46.32 147.67 -47.64 147.34 -49 147 C-49.17015625 146.01 -49.3403125 145.02 -49.515625 144 C-50.81057138 136.81918154 -52.10240597 130.28644198 -56 124 C-57.89414904 122.78053962 -57.89414904 122.78053962 -59.66015625 123.421875 C-62.93564364 124.23117739 -66.06750039 124.20992072 -69.4375 124.25 C-71.38462891 124.28867187 -71.38462891 124.28867187 -73.37109375 124.328125 C-77.16839341 123.9847739 -78.98750077 123.26633491 -82 121 C-83.66469762 118.95696201 -84.02486729 117.65832881 -83.92578125 115.03515625 C-83.61011752 112.17348346 -83.29695333 109.59390666 -82 107 C-82.99 106.67 -83.98 106.34 -85 106 C-85.70074844 102.846632 -86 100.27275026 -86 97 C-86.33 96.67 -86.66 96.34 -87 96 C-87.19223268 91.86699731 -86.77287314 88.05758399 -86 84 C-86.78375 83.71125 -87.5675 83.4225 -88.375 83.125 C-91 82 -91 82 -93 80 C-93.57769552 76.76490506 -93.79474585 75.11145599 -93 72 C-91.24609375 69.56640625 -91.24609375 69.56640625 -89.0625 67.0625 C-83.98587065 61.22482392 -83.86843717 57.13204751 -84.10546875 49.6875 C-83.62782044 32.98749975 -75.36173957 20.39397145 -64 9 C-63.32839844 8.30519531 -62.65679687 7.61039063 -61.96484375 6.89453125 C-46.47314245 -8.00513051 -18.46011682 -11.07607009 0 0 Z " fill="#000000" transform="translate(105,25)"/>
<path d="M0 0 C3.50683189 0.52229411 6.4648969 0.06256856 9.9375 -0.5625 C10.4325 1.9125 10.4325 1.9125 10.9375 4.4375 C9.3627706 5.16476052 7.77725721 5.86870422 6.1875 6.5625 C5.30578125 6.95695312 4.4240625 7.35140625 3.515625 7.7578125 C0.9375 8.4375 0.9375 8.4375 -1.1953125 7.59375 C-2.11957031 7.02140625 -2.11957031 7.02140625 -3.0625 6.4375 C-5.76693914 5.89661217 -8.30353859 5.4375 -11.0625 5.4375 C-11.31 6.241875 -11.5575 7.04625 -11.8125 7.875 C-13.0625 10.4375 -13.0625 10.4375 -14.75 11.375 C-17.0625 11.4375 -17.0625 11.4375 -20.5 10.4375 C-24.02055204 9.44927487 -25.7191299 9.0046271 -29.0625 10.4375 C-31.66304192 14.52406588 -31.22101928 18.76118122 -31.0625 23.4375 C-30.11375 23.251875 -29.165 23.06625 -28.1875 22.875 C-25.0625 22.4375 -25.0625 22.4375 -23.0625 23.4375 C-23.25 25.8125 -23.25 25.8125 -24.0625 28.4375 C-25.71688613 29.13408363 -27.38504318 29.79846883 -29.0625 30.4375 C-30.88869087 32.95114756 -30.88869087 32.95114756 -32.0625 35.4375 C-33.3825 35.1075 -34.7025 34.7775 -36.0625 34.4375 C-36.03929687 33.82261719 -36.01609375 33.20773438 -35.9921875 32.57421875 C-35.97414063 31.76597656 -35.95609375 30.95773438 -35.9375 30.125 C-35.91429687 29.32449219 -35.89109375 28.52398437 -35.8671875 27.69921875 C-35.90432678 25.15361424 -35.90432678 25.15361424 -38.0625 22.4375 C-38.041875 23.736875 -38.02125 25.03625 -38 26.375 C-37.97850546 27.72915633 -37.99101801 29.08506083 -38.0625 30.4375 C-38.3925 30.7675 -38.7225 31.0975 -39.0625 31.4375 C-39.4692287 35.0167126 -39.27538066 37.02099436 -37.625 40.25 C-34.01849074 43.32872742 -30.68383565 43.32887886 -26.0625 43.4375 C-25.959375 42.674375 -25.85625 41.91125 -25.75 41.125 C-25.00592109 38.21632791 -24.58232932 37.05739028 -22.0625 35.4375 C-19.375 35.75 -19.375 35.75 -17.0625 36.4375 C-17.62406058 39.24530292 -18.48471466 41.31320449 -19.75 43.9375 C-21.28395753 47.1936486 -21.28395753 47.1936486 -20.75 49.8125 C-17.95656746 52.50247207 -14.85480229 52.19283534 -11.0625 52.4375 C-11.0625 49.4675 -11.0625 46.4975 -11.0625 43.4375 C-12.0525 43.1075 -13.0425 42.7775 -14.0625 42.4375 C-14.0625 40.4575 -14.0625 38.4775 -14.0625 36.4375 C-13.0725 35.9425 -13.0725 35.9425 -12.0625 35.4375 C-10.0625 36.8125 -10.0625 36.8125 -8.0625 38.4375 C-8.0625 39.0975 -8.0625 39.7575 -8.0625 40.4375 C-5.4225 40.4375 -2.7825 40.4375 -0.0625 40.4375 C0.4325 42.4175 0.4325 42.4175 0.9375 44.4375 C-2.0625 46.4375 -2.0625 46.4375 -6.0625 46.4375 C-5.62011769 48.81290603 -5.62011769 48.81290603 -4.0625 51.4375 C-2.22813158 52.61317552 -2.22813158 52.61317552 -0.125 53.6875 C4.01669419 56.10600756 5.51153201 58.4061659 6.75 63.01171875 C7.07360064 67.19830204 5.66898721 70.68150466 3.9375 74.4375 C1.4625 74.9325 1.4625 74.9325 -1.0625 75.4375 C-1.6875 73.625 -1.6875 73.625 -2.0625 71.4375 C-1.0725 69.9525 -1.0725 69.9525 -0.0625 68.4375 C0.39659797 64.32824059 0.39659797 64.32824059 -1.25 60.6875 C-3.45055597 59.16987519 -5.50770572 58.22359055 -8.0625 57.4375 C-9.0525 57.9325 -9.0525 57.9325 -10.0625 58.4375 C-14.89051179 58.95875437 -18.81577778 59.12446938 -23.125 56.75 C-25.2367292 54.22954902 -25.79210418 52.68224984 -26.0625 49.4375 C-26.93261719 49.48970703 -26.93261719 49.48970703 -27.8203125 49.54296875 C-33.00050058 49.72248022 -36.7088655 49.57616673 -41.0625 46.4375 C-45.4220911 40.815922 -45.56817541 36.37247708 -45.0625 29.4375 C-45.03027344 28.550625 -44.99804688 27.66375 -44.96484375 26.75 C-44.72460425 22.61048854 -44.38942145 19.98988452 -42.25 16.375 C-40.0625 14.4375 -40.0625 14.4375 -37.9375 14 C-37.31875 13.814375 -36.7 13.62875 -36.0625 13.4375 C-34.7579344 10.44134054 -34.7579344 10.44134054 -34.0625 7.4375 C-33.4025 7.4375 -32.7425 7.4375 -32.0625 7.4375 C-32.0625 6.7775 -32.0625 6.1175 -32.0625 5.4375 C-28.38334421 3.92810275 -25.48526197 3.36337503 -21.5625 3.5625 C-13.32062428 3.81016905 -9.1772015 -1.68560844 0 0 Z " fill="#000000" transform="translate(83.0625,34.5625)"/>
<path d="M0 0 C1.1859375 0.00257812 2.371875 0.00515625 3.59375 0.0078125 C4.7796875 0.00523438 5.965625 0.00265625 7.1875 0 C10.09375 0.1328125 10.09375 0.1328125 11.09375 1.1328125 C11.13455783 3.13239614 11.13629356 5.13326504 11.09375 7.1328125 C12.063125 7.1121875 13.0325 7.0915625 14.03125 7.0703125 C17.09375 7.1328125 17.09375 7.1328125 18.09375 8.1328125 C18.19254565 9.9430975 18.22346514 11.75733977 18.21875 13.5703125 C18.22261719 15.05337891 18.22261719 15.05337891 18.2265625 16.56640625 C18.09375 19.1328125 18.09375 19.1328125 17.09375 21.1328125 C15.11375 21.1328125 13.13375 21.1328125 11.09375 21.1328125 C11.114375 22.1021875 11.135 23.0715625 11.15625 24.0703125 C11.09375 27.1328125 11.09375 27.1328125 10.09375 28.1328125 C7.90735547 28.20540196 5.71874611 28.21655033 3.53125 28.1953125 C1.73494141 28.18177734 1.73494141 28.18177734 -0.09765625 28.16796875 C-1.02449219 28.15636719 -1.95132813 28.14476563 -2.90625 28.1328125 C-3.23625 25.8228125 -3.56625 23.5128125 -3.90625 21.1328125 C-5.88625 21.1328125 -7.86625 21.1328125 -9.90625 21.1328125 C-9.90625 16.5128125 -9.90625 11.8928125 -9.90625 7.1328125 C-7.92625 7.1328125 -5.94625 7.1328125 -3.90625 7.1328125 C-3.926875 6.1634375 -3.9475 5.1940625 -3.96875 4.1953125 C-3.88675629 0.17762058 -3.88675629 0.17762058 0 0 Z M2.09375 5.1328125 C1.76375 7.1128125 1.43375 9.0928125 1.09375 11.1328125 C-0.88625 11.4628125 -2.86625 11.7928125 -4.90625 12.1328125 C-4.90625 13.4528125 -4.90625 14.7728125 -4.90625 16.1328125 C-2.59625 16.1328125 -0.28625 16.1328125 2.09375 16.1328125 C2.09375 18.1128125 2.09375 20.0928125 2.09375 22.1328125 C3.08375 22.1328125 4.07375 22.1328125 5.09375 22.1328125 C5.09375 20.1528125 5.09375 18.1728125 5.09375 16.1328125 C7.40375 16.1328125 9.71375 16.1328125 12.09375 16.1328125 C12.09375 14.8128125 12.09375 13.4928125 12.09375 12.1328125 C9.12375 11.6378125 9.12375 11.6378125 6.09375 11.1328125 C5.76375 9.1528125 5.43375 7.1728125 5.09375 5.1328125 C4.10375 5.1328125 3.11375 5.1328125 2.09375 5.1328125 Z " fill="#000000" transform="translate(150.90625,22.8671875)"/>
<path d="M0 0 C0.886875 0.37125 1.77375 0.7425 2.6875 1.125 C3.8321875 1.558125 3.8321875 1.558125 5 2 C5.99 1.34 6.98 0.68 8 0 C14.06382979 0.53191489 14.06382979 0.53191489 17 2 C17.44921875 3.9609375 17.44921875 3.9609375 17.6875 6.375 C17.77386719 7.16648437 17.86023438 7.95796875 17.94921875 8.7734375 C18 11 18 11 17 14 C15.34211215 15.34423339 13.67423683 16.67618483 12 18 C11.360625 18.886875 10.72125 19.77375 10.0625 20.6875 C8 23 8 23 4.9375 23.9375 C2 24 2 24 -1 22 C-1 21.34 -1 20.68 -1 20 C-1.99 19.67 -2.98 19.34 -4 19 C-4 18.34 -4 17.68 -4 17 C-4.99 16.67 -5.98 16.34 -7 16 C-7 15.34 -7 14.68 -7 14 C-7.99 13.67 -8.98 13.34 -10 13 C-11.01646402 8.6292047 -11.20951146 5.97712063 -9 2 C-5.49337515 -0.3377499 -4.12370255 -0.3298962 0 0 Z M-4 5 C-4.87436418 6.73575649 -4.87436418 6.73575649 -5 9 C-3.2889924 11.639038 -3.2889924 11.639038 -1 14 C-0.2575 14.928125 -0.2575 14.928125 0.5 15.875 C1.93886802 17.221668 1.93886802 17.221668 3.859375 16.79296875 C6.50639234 15.81241306 7.81838775 14.48055142 9.75 12.4375 C10.36359375 11.79683594 10.9771875 11.15617187 11.609375 10.49609375 C12.06828125 10.00238281 12.5271875 9.50867188 13 9 C12.34 7.68 11.68 6.36 11 5 C10.319375 5.680625 9.63875 6.36125 8.9375 7.0625 C6 9 6 9 2.1875 8.75 C1.135625 8.5025 0.08375 8.255 -1 8 C-1.33 7.01 -1.66 6.02 -2 5 C-2.66 5 -3.32 5 -4 5 Z " fill="#000000" transform="translate(112,55)"/>
<path d="M0 0 C1.32 0 2.64 0 4 0 C3.55647603 5.21140665 2.2114968 9.17987978 -0.0625 13.88671875 C-4.8253459 24.62296721 -2.03856723 37.4974042 2 48 C3.75703231 51.73032955 5.69062573 55.34513662 7.70703125 58.94140625 C9.11001708 62.26025189 9.12073441 63.63779676 8 67 C5.46856941 66.64142527 4.31261435 66.39286759 2.69140625 64.35546875 C1.42284444 61.91930334 0.1866835 59.47733624 -1 57 C-1.43699219 56.11957031 -1.87398438 55.23914063 -2.32421875 54.33203125 C-9.32159505 39.09750328 -10.67901863 23.82771658 -4.84765625 7.9453125 C-3.51843075 4.89483186 -2.16133684 2.55430718 0 0 Z " fill="#000000" transform="translate(123,105)"/>
<path d="M0 0 C5.06838407 0.62831208 9.95256675 1.78586183 14 5 C16.79663389 8.72884518 17.73208543 12.562299 19 17 C19.495 17.825 19.99 18.65 20.5 19.5 C22 22 22 22 23 25.5625 C23.74131794 28.93387395 23.74131794 28.93387395 25.5625 30.9375 C28.51820506 35.17829421 28.19962153 39.82223295 27.375 44.6875 C25.82991431 48.40975189 24.01637089 50.37034333 21 53 C20.67 53.33 20.34 53.66 20 54 C18.33382885 54.04063832 16.66611905 54.042721 15 54 C14.6875 51.75 14.6875 51.75 15 49 C17.4375 46.8125 17.4375 46.8125 20 45 C21.55024464 41.89951072 21.28992015 39.42105782 21 36 C20.38125 35.2575 19.7625 34.515 19.125 33.75 C16.32068086 30.12088111 16.173288 26.9132479 15.6875 22.42578125 C15.24142158 19.83427965 15.24142158 19.83427965 12.9375 18.66796875 C12.298125 18.44753906 11.65875 18.22710937 11 18 C11.0825 17.0925 11.165 16.185 11.25 15.25 C11.27486103 11.99101356 11.27486103 11.99101356 9.4375 9.75 C6.42654932 7.58829182 3.58925469 6.82828954 0 6 C-0.38218767 4.34385343 -0.71395102 2.67542976 -1 1 C-0.67 0.67 -0.34 0.34 0 0 Z " fill="#000000" transform="translate(120,36)"/>
<path d="M0 0 C2.4375 0.8125 2.4375 0.8125 5 2 C6.1577506 5.47325181 6.06866652 8.36067448 6 12 C7.32 12 8.64 12 10 12 C9.67 13.65 9.34 15.3 9 17 C7.865625 16.979375 6.73125 16.95875 5.5625 16.9375 C2.18424326 16.58422523 2.18424326 16.58422523 1 18 C-5.23529412 18.47058824 -5.23529412 18.47058824 -8.4375 16.5 C-8.953125 16.005 -9.46875 15.51 -10 15 C-9.67 13.68 -9.34 12.36 -9 11 C-6.36 11 -3.72 11 -1 11 C-0.40929986 9.05396726 -0.40929986 9.05396726 0 7 C-0.33 6.67 -0.66 6.34 -1 6 C-1.125 3.5 -1.125 3.5 -1 1 C-0.67 0.67 -0.34 0.34 0 0 Z " fill="#000000" transform="translate(76,45)"/>
<path d="M0 0 C1.32 0.33 2.64 0.66 4 1 C4.25220133 5.6727302 3.53437618 8.99667448 1.75 13.3125 C1.33234375 14.36050781 0.9146875 15.40851563 0.484375 16.48828125 C-1 19 -1 19 -3.171875 19.85546875 C-4.07679687 19.92701172 -4.07679687 19.92701172 -5 20 C-6.10546875 18.26953125 -6.10546875 18.26953125 -7 16 C-6.42578125 13.88671875 -6.42578125 13.88671875 -5.3125 11.6875 C-4.93222656 10.90890625 -4.55195312 10.1303125 -4.16015625 9.328125 C-3.58587891 8.17570312 -3.58587891 8.17570312 -3 7 C-2.4064239 5.65029168 -1.82180571 4.29657445 -1.25 2.9375 C-0.8375 1.968125 -0.425 0.99875 0 0 Z " fill="#000000" transform="translate(97,94)"/>
<path d="M0 0 C0.99 0 1.98 0 3 0 C4.60877352 4.82632057 2.98677811 8.49770446 1 13 C-1.1875 16.0625 -1.1875 16.0625 -3 18 C-4.65 17.67 -6.3 17.34 -8 17 C-7.57616334 14.62651473 -7.12872859 13.16383639 -5.625 11.25 C-3.671596 8.54528677 -2.73074539 5.84339657 -1.6484375 2.70703125 C-1 1 -1 1 0 0 Z " fill="#000000" transform="translate(129,76)"/>
</svg>
